<svg width="250" height="250" viewBox="0 0 250 250" fill="none" xmlns="http://www.w3.org/2000/svg">
<path id="Vector" d="M248.571 10.0769V10.0268C248.099 7.95818 247.059 6.06252 245.567 4.55389C244.075 3.04526 242.191 1.98366 240.127 1.48871C223.498 -2.56822 197.336 1.75648 168.345 13.3636C140.466 24.2008 114.959 40.3522 93.242 60.9196C87.3107 66.8193 81.8 73.1276 76.7512 79.7981C65.5979 79.0276 54.4163 80.824 44.0656 85.0492C11.8435 99.229 2.64146 135.518 0.1916 150.418C-0.162884 152.535 -0.0242283 154.705 0.59709 156.76C1.21841 158.814 2.30566 160.698 3.77386 162.264C5.24206 163.83 7.05158 165.036 9.06202 165.788C11.0725 166.54 13.2297 166.818 15.3652 166.601H15.4375L51.3316 162.683C51.3762 163.141 51.4265 163.56 51.4655 163.945C51.9265 168.318 53.877 172.401 56.9902 175.507L74.5077 193.035C77.6097 196.153 81.6913 198.106 86.0651 198.566L87.2647 198.694L83.3584 234.542V234.615C83.1699 236.437 83.3424 238.279 83.8657 240.035C84.389 241.79 85.2531 243.426 86.4085 244.847C87.5639 246.269 88.988 247.45 90.5995 248.321C92.2111 249.193 93.9784 249.738 95.8008 249.927C96.23 249.971 96.6605 249.996 97.0925 250C97.8684 250.001 98.6429 249.937 99.4083 249.81C114.392 247.399 150.666 238.309 164.807 205.915C168.998 195.6 170.801 184.47 170.08 173.359C176.781 168.321 183.113 162.81 189.026 156.869C209.581 135.358 225.752 110.05 236.634 82.3594C248.18 53.6988 252.527 27.3427 248.571 10.0769ZM188.826 107.667C184.241 112.256 178.399 115.382 172.038 116.651C165.676 117.92 159.082 117.273 153.087 114.794C147.093 112.315 141.969 108.114 138.362 102.723C134.756 97.3316 132.829 90.9917 132.826 84.5052C132.823 78.0188 134.743 71.6772 138.344 66.2821C141.945 60.887 147.065 56.6808 153.056 54.1955C159.048 51.7101 165.642 51.0572 172.005 52.3193C178.367 53.5815 184.213 56.702 188.802 61.2862L188.826 61.3101C194.973 67.365 198.463 75.6139 198.529 84.2421C198.594 92.8703 195.229 101.171 189.174 107.318L188.826 107.667Z" fill="#449DFE"/>
</svg>
